<svg width="24" height="24" viewBox="0 0 24 24" fill="none" xmlns="http://www.w3.org/2000/svg">
<path d="M2.83201 19C2.28142 17.7384 1.99813 16.3765 2.00001 15C2.00001 9.477 6.47701 5 12 5C17.523 5 22 9.477 22 15C22.0019 16.3765 21.7186 17.7384 21.168 19H2.83201ZM19.748 17C20.0515 15.8183 20.0807 14.5828 19.8334 13.388C19.586 12.1933 19.0687 11.0709 18.321 10.1068C17.5732 9.14276 16.6148 8.36248 15.5192 7.82569C14.4235 7.2889 13.2196 7.00984 11.9995 7.00984C10.7794 7.00984 9.5755 7.2889 8.47985 7.82569C7.38419 8.36248 6.42582 9.14276 5.67807 10.1068C4.93031 11.0709 4.41297 12.1933 4.16563 13.388C3.91828 14.5828 3.94749 15.8183 4.25101 17H19.748ZM12 10C11.7348 10 11.4804 9.89464 11.2929 9.70711C11.1054 9.51957 11 9.26522 11 9C11 8.73478 11.1054 8.48043 11.2929 8.29289C11.4804 8.10536 11.7348 8 12 8C12.2652 8 12.5196 8.10536 12.7071 8.29289C12.8947 8.48043 13 8.73478 13 9C13 9.26522 12.8947 9.51957 12.7071 9.70711C12.5196 9.89464 12.2652 10 12 10ZM7.00001 14C6.73479 14 6.48044 13.8946 6.2929 13.7071C6.10537 13.5196 6.00001 13.2652 6.00001 13C6.00001 12.7348 6.10537 12.4804 6.2929 12.2929C6.48044 12.1054 6.73479 12 7.00001 12C7.26523 12 7.51958 12.1054 7.70712 12.2929C7.89465 12.4804 8.00001 12.7348 8.00001 13C8.00001 13.2652 7.89465 13.5196 7.70712 13.7071C7.51958 13.8946 7.26523 14 7.00001 14ZM17 14C16.7348 14 16.4804 13.8946 16.2929 13.7071C16.1054 13.5196 16 13.2652 16 13C16 12.7348 16.1054 12.4804 16.2929 12.2929C16.4804 12.1054 16.7348 12 17 12C17.2652 12 17.5196 12.1054 17.7071 12.2929C17.8947 12.4804 18 12.7348 18 13C18 13.2652 17.8947 13.5196 17.7071 13.7071C17.5196 13.8946 17.2652 14 17 14ZM12 11C12.2652 11 12.5196 11.1054 12.7071 11.2929C12.8947 11.4804 13 11.7348 13 12V15C13 15.2652 12.8947 15.5196 12.7071 15.7071C12.5196 15.8946 12.2652 16 12 16C11.7348 16 11.4804 15.8946 11.2929 15.7071C11.1054 15.5196 11 15.2652 11 15V12C11 11.7348 11.1054 11.4804 11.2929 11.2929C11.4804 11.1054 11.7348 11 12 11Z" fill="#3252DF"/>
</svg>
