<svg width="24" height="24" viewBox="0 0 24 24" fill="none" xmlns="http://www.w3.org/2000/svg">
<path d="M17.25 2C17.6111 2 17.9687 2.07113 18.3024 2.20933C18.636 2.34753 18.9392 2.5501 19.1945 2.80546C19.4499 3.06082 19.6525 3.36398 19.7907 3.69762C19.9289 4.03127 20 4.38886 20 4.75V19.25C20 19.6111 19.9289 19.9687 19.7907 20.3024C19.6525 20.636 19.4499 20.9392 19.1945 21.1945C18.9392 21.4499 18.636 21.6525 18.3024 21.7907C17.9687 21.9289 17.6111 22 17.25 22H6.75C6.38878 22 6.0311 21.9288 5.69739 21.7906C5.36368 21.6523 5.06048 21.4497 4.8051 21.1942C4.54973 20.9387 4.34719 20.6354 4.20904 20.3017C4.0709 19.9679 3.99987 19.6102 4 19.249V4.75C4 3.49 4.846 2.43 6 2.103V3.75C5.696 3.978 5.5 4.34 5.5 4.75V19.248C5.5 19.938 6.06 20.498 6.75 20.498H17.25C17.94 20.498 18.5 19.938 18.5 19.248V4.75C18.5 4.06 17.94 3.5 17.25 3.5H15V2H17.25ZM14 2V10.139C14 10.886 13.2 11.166 12.71 10.903L12.628 10.851L10.502 9.566L8.424 10.817C7.924 11.177 7.094 10.957 7.007 10.259L7 10.14V2H14ZM12.5 3.5H8.5V9.023L10.073 8.074C10.1983 8.00738 10.3373 7.97055 10.4792 7.96639C10.6211 7.96223 10.762 7.99084 10.891 8.05L12.501 9.024V3.5H12.5Z" fill="black"/>
</svg>
