<svg width="47" height="31" viewBox="0 0 47 31" fill="none" xmlns="http://www.w3.org/2000/svg">
<path d="M32 13.375C35.5275 13.375 38.3537 10.5275 38.3537 7C38.3537 3.4725 35.5275 0.625 32 0.625C28.4725 0.625 25.625 3.4725 25.625 7C25.625 10.5275 28.4725 13.375 32 13.375ZM15 13.375C18.5275 13.375 21.3538 10.5275 21.3538 7C21.3538 3.4725 18.5275 0.625 15 0.625C11.4725 0.625 8.625 3.4725 8.625 7C8.625 10.5275 11.4725 13.375 15 13.375ZM15 17.625C10.0487 17.625 0.125 20.1112 0.125 25.0625V30.375H29.875V25.0625C29.875 20.1112 19.9513 17.625 15 17.625ZM32 17.625C31.3838 17.625 30.6825 17.6675 29.9387 17.7313C32.4037 19.5163 34.125 21.9175 34.125 25.0625V30.375H46.875V25.0625C46.875 20.1112 36.9513 17.625 32 17.625Z" fill="#3252DF"/>
</svg>
